PathFileType	4	(X/Y/Z)	Static_1_OpenSim.trc																																																																																																																						
DataRate	CameraRate	NumFrames	NumMarkers	Units	OrigDataRate	OrigDataStartFrame	OrigNumFrames																																																																																																																		
100	100	4	40	mm	100	542	619																																																																																																																		
Frame#	Time	R.ASIS			R.PSIS			S2			L.PSIS			L.ASIS			R.TH1			R.TH2			R.TH3			R.MKnee			R.Knee			R.SH1			R.SH2			R.SH3			R.SH4			R.Ankle			R.MAnkle			R.Heel			R.MT5			R.MT1			L.TH1			L.TH2			L.TH3			L.TH4			L.MKnee			L.Knee			L.SH1			L.SH2			L.SH3			L.Ankle			L.MAnkle			L.Heel			L.MT5			L.MT1			R.Acr			L.Acr			C7			T10			Clav			Sternum			R.Back		
		X1	Y1	Z1	X2	Y2	Z2	X3	Y3	Z3	X4	Y4	Z4	X5	Y5	Z5	X6	Y6	Z6	X7	Y7	Z7	X8	Y8	Z8	X9	Y9	Z9	X10	Y10	Z10	X11	Y11	Z11	X12	Y12	Z12	X13	Y13	Z13	X14	Y14	Z14	X15	Y15	Z15	X16	Y16	Z16	X17	Y17	Z17	X18	Y18	Z18	X19	Y19	Z19	X20	Y20	Z20	X21	Y21	Z21	X22	Y22	Z22	X23	Y23	Z23	X24	Y24	Z24	X25	Y25	Z25	X26	Y26	Z26	X27	Y27	Z27	X28	Y28	Z28	X29	Y29	Z29	X30	Y30	Z30	X31	Y31	Z31	X32	Y32	Z32	X33	Y33	Z33	X34	Y34	Z34	X35	Y35	Z35	X36	Y36	Z36	X37	Y37	Z37	X38	Y38	Z38	X39	Y39	Z39	X40	Y40	Z40
542	5.41	881.8477	1071.0508	-432.9784	674.986	1079.5079	-535.2312	666.3968	1076.7172	-580.9426	679.7372	1082.2195	-631.5686	880.1928	1068.2855	-724.6797	844.1707	739.7599	-397.4512	762.1964	737.8483	-395.6384	764.007	628.4264	-404.2103	806.027	502.6126	-519.4981	785.7545	513.3444	-406.1839	784.973	350.3249	-390.9701	789.2817	238.6941	-402.1252	702.6184	349.6606	-399.2758	708.3519	236.0666	-401.5025	725.2183	77.7873	-402.2832	789.3407	92.9158	-480.3216	685.8166	36.8544	-474.6259	823.7793	37.8912	-336.0468	898.0525	39.6204	-404.3263	865.1865	766.9564	-752.4208	853.5007	658.9865	-750.137	782.2597	772.2473	-764.9806	773.6445	662.6669	-754.7909	818.7584	501.0232	-643.2513	808.2058	518.4263	-751.0966	796.1358	392.3749	-782.2811	714.1887	398.5246	-772.2673	709.2031	288.9123	-774.1135	752.403	83.7782	-797.2252	797.1336	91.3922	-703.3257	696.0902	43.6113	-734.7016	854.9699	33.1689	-833.3357	911.0323	45.1267	-741.4313	810.2417	1489.1947	-427.9978	794.3169	1482.5419	-724.3249	766.6866	1511.4778	-577.0223	730.5137	1183.1332	-578.0314	897.8233	1413.2407	-579.9916	926.7551	1271.2061	-570.6575	678.4052	1409.8815	-498.4593
543	5.42	881.6422	1071.0225	-432.9461	674.7958	1079.568	-535.2629	666.2239	1076.7827	-580.9694	679.5539	1082.2899	-631.5926	880.0207	1068.2756	-724.6647	843.9052	739.7426	-397.4681	761.9018	737.856	-395.6589	763.7468	628.4193	-404.2299	805.7825	502.6114	-519.5015	785.5425	513.3423	-406.1868	784.8461	350.3601	-390.9509	789.1824	238.7146	-402.1152	702.5224	349.6338	-399.3131	708.173	236.0794	-401.4743	725.2062	77.7795	-402.2964	789.3271	92.9272	-480.3147	685.8117	36.8484	-474.6249	823.7728	37.8904	-336.0432	898.0479	39.6252	-404.3247	864.9191	766.9704	-752.3388	853.2987	659.0201	-750.139	782.0808	772.2361	-764.9915	773.4611	662.6601	-754.8135	818.497	501.0526	-643.3401	808.0588	518.4333	-751.1002	795.9768	392.3986	-782.2663	714.0523	398.5225	-772.2808	709.1132	288.9141	-774.1233	752.4413	83.772	-797.226	797.0855	91.4012	-703.3287	696.0815	43.6164	-734.6965	854.9631	33.1715	-833.3381	911.0309	45.1324	-741.4312	810.5521	1489.1807	-427.8899	794.6422	1482.649	-724.1952	767.2108	1511.6349	-576.9172	730.3913	1183.2449	-578.012	898.0119	1413	-579.8948	926.7091	1270.9709	-570.5723	678.6176	1410.1322	-498.4665
544	5.43	881.4521	1070.9919	-432.9155	674.6353	1079.6316	-535.2902	666.0748	1076.8519	-580.9949	679.3962	1082.3583	-631.6132	879.8685	1068.2605	-724.6484	843.6405	739.7118	-397.4937	761.6144	737.8668	-395.6723	763.5014	628.4133	-404.2429	805.5383	502.6165	-519.5088	785.3301	513.3419	-406.1885	784.7075	350.3913	-390.947	789.0888	238.7359	-402.1033	702.4238	349.611	-399.3437	708.0037	236.0894	-401.4533	725.1957	77.7726	-402.311	789.3086	92.9334	-480.3039	685.8075	36.8433	-474.6231	823.7666	37.8896	-336.0403	898.041	39.6316	-404.3182	864.6736	766.9857	-752.2706	853.1054	659.0491	-750.1357	781.9105	772.2263	-764.9986	773.2899	662.6547	-754.8262	818.2522	501.0775	-643.4023	807.9217	518.4387	-751.1013	795.8135	392.4255	-782.2404	713.9211	398.5196	-772.29	709.0232	288.9138	-774.1335	752.4981	83.7648	-797.2269	797.0408	91.4087	-703.3321	696.0756	43.6206	-734.6927	854.9566	33.1739	-833.3412	911.0303	45.1381	-741.4304	810.8489	1489.1709	-427.7901	794.9638	1482.7556	-724.0724	767.7072	1511.7798	-576.8129	730.295	1183.3513	-577.991	898.1954	1412.7806	-579.7919	926.6759	1270.7522	-570.4872	678.8353	1410.3668	-498.4709
545	5.44	881.2776	1070.959	-432.8867	674.5031	1079.699	-535.3115	665.9463	1076.9257	-581.019	679.2648	1082.4264	-631.6299	879.7377	1068.2395	-724.6309	843.3784	739.6632	-397.5287	761.3464	737.8773	-395.6798	763.27	628.4074	-404.25	805.2985	502.6251	-519.5179	785.1171	513.3417	-406.1898	784.5571	350.4178	-390.9585	789.001	238.7587	-402.0913	702.3177	349.5926	-399.3641	707.8464	236.0961	-401.4396	725.188	77.7659	-402.3238	789.2872	92.934	-480.2897	685.8043	36.8385	-474.6213	823.7618	37.8885	-336.0389	898.0325	39.6387	-404.3073	864.4556	766.994	-752.22	852.9244	659.0718	-750.1274	781.7481	772.2182	-765.0022	773.1294	662.6508	-754.8299	818.0357	501.092	-643.4263	807.7946	518.4417	-751.1005	795.6526	392.4524	-782.2092	713.7981	398.5155	-772.2957	708.9349	288.9107	-774.1441	752.5602	83.7577	-797.2286	797.0016	91.414	-703.3365	696.0726	43.6232	-734.6917	854.952	33.1744	-833.3444	911.0313	45.1426	-741.4289	811.1209	1489.1638	-427.7043	795.2668	1482.8502	-723.9577	768.1758	1511.9124	-576.7098	730.2234	1183.4504	-577.9688	898.3672	1412.5803	-579.6854	926.6523	1270.552	-570.4027	679.048	1410.5815	-498.4728
